<?xml version="1.0" encoding="UTF-8" standalone="no"?>
<!DOCTYPE svg PUBLIC "-//W3C//DTD SVG 1.1//EN" "http://www.w3.org/Graphics/SVG/1.1/DTD/svg11.dtd">
<svg width="100%" height="100%" viewBox="0 0 286 42" version="1.1" xmlns="http://www.w3.org/2000/svg" xmlns:xlink="http://www.w3.org/1999/xlink" xml:space="preserve" xmlns:serif="http://www.serif.com/" style="fill-rule:evenodd;clip-rule:evenodd;stroke-linejoin:round;stroke-miterlimit:2;">
    <g transform="matrix(1,0,0,1,-100,-100)">
        <g transform="matrix(1,0,0,4.35629,0,0)">
            <g transform="matrix(1.14132,0,0,0.261993,-949.101,-259.136)">
                <path d="M942.402,1099.31L928.502,1099.31L928.502,1112.31L919.202,1112.31L919.202,1077.31L943.902,1077.31L943.902,1085.31L928.502,1085.31L928.502,1091.31L942.402,1091.31L942.402,1099.31ZM962.602,1112.91C950.752,1112.91 947.402,1106.01 947.402,1099.81L947.402,1089.81C947.402,1083.61 950.752,1076.71 962.602,1076.71C974.452,1076.71 977.852,1083.61 977.852,1089.81L977.852,1099.81C977.852,1106.01 974.452,1112.91 962.602,1112.91ZM962.602,1104.81C967.452,1104.81 968.552,1102.01 968.552,1099.31L968.552,1090.31C968.552,1087.61 967.452,1084.81 962.602,1084.81C957.752,1084.81 956.702,1087.61 956.702,1090.31L956.702,1099.31C956.702,1102.01 957.752,1104.81 962.602,1104.81ZM997.402,1101.26L992.552,1101.26L992.552,1112.31L983.252,1112.31L983.252,1077.31L997.402,1077.31C1009.25,1077.31 1012.7,1083.26 1012.7,1089.21C1012.7,1093.21 1011.1,1097.31 1006.45,1099.56L1012.2,1112.31L1002.3,1112.31L997.402,1101.26ZM997.452,1085.06L992.552,1085.06L992.552,1093.61L997.452,1093.61C1002.3,1093.61 1003.3,1091.36 1003.3,1089.36C1003.3,1087.36 1002.3,1085.06 997.452,1085.06ZM1017.55,1112.31L1017.55,1077.31L1042.05,1077.31L1042.05,1085.06L1026.85,1085.06L1026.85,1090.66L1040.55,1090.66L1040.55,1098.16L1026.85,1098.16L1026.85,1104.56L1042.55,1104.56L1042.55,1112.31L1017.55,1112.31ZM1062.4,1101.96L1056.35,1093.51L1056.35,1112.31L1047.7,1112.31L1047.7,1077.31L1055.8,1077.31L1064.45,1090.31L1072.65,1077.31L1081.25,1077.31L1081.25,1112.31L1072.15,1112.31L1072.15,1093.01L1066.3,1101.96L1062.4,1101.96ZM1109.1,1112.31L1107.25,1106.56L1095.45,1106.56L1093.6,1112.31L1084.3,1112.31L1096.85,1077.31L1106.35,1077.31L1118.9,1112.31L1109.1,1112.31ZM1104.85,1099.21L1101.3,1088.16L1097.8,1099.21L1104.85,1099.21ZM1144.3,1112.31L1130.75,1093.86L1130.75,1112.31L1121.95,1112.31L1121.95,1077.31L1129.65,1077.31L1143.2,1095.86L1143.2,1077.31L1152,1077.31L1152,1112.31L1144.3,1112.31ZM1162.5,1078.34L1160.54,1078.34L1160.54,1083.82L1159.47,1083.82L1159.47,1078.34L1157.51,1078.34L1157.51,1077.4L1162.5,1077.4L1162.5,1078.34ZM1165.98,1081.66L1164.4,1079.31L1164.4,1083.82L1163.41,1083.82L1163.41,1077.4L1164.34,1077.4L1166.22,1080.31L1168.07,1077.4L1169.05,1077.4L1169.05,1083.82L1168,1083.82L1168,1079.25L1166.44,1081.66L1165.98,1081.66Z" style="fill:rgb(144,112,168);"/>
            </g>
        </g>
    </g>
</svg>
