<?xml version="1.0" encoding="UTF-8" standalone="no"?>
<!DOCTYPE svg PUBLIC "-//W3C//DTD SVG 1.1//EN" "http://www.w3.org/Graphics/SVG/1.1/DTD/svg11.dtd">
<svg width="100%" height="100%" viewBox="0 0 65 66" version="1.1" xmlns="http://www.w3.org/2000/svg" xmlns:xlink="http://www.w3.org/1999/xlink" xml:space="preserve" xmlns:serif="http://www.serif.com/" style="fill-rule:evenodd;clip-rule:evenodd;stroke-linejoin:round;stroke-miterlimit:2;">
    <g transform="matrix(1,0,0,1,-99.6708,-1016.75)">
        <g transform="matrix(1,0,0,2.96612,0,0)">
            <g transform="matrix(1,0,0,1,-83.6842,0)">
                <g transform="matrix(1,0,0,0.33714,0,0)">
                    <path d="M215.855,1020.83C231.542,1020.83 244.278,1033.57 244.278,1049.25C244.278,1064.94 231.542,1077.67 215.855,1077.67C210.087,1077.67 204.719,1075.95 200.235,1073C198.725,1072 189.805,1075.23 189.805,1075.23C189.805,1075.23 193.704,1067.13 192.716,1065.75C189.39,1061.1 187.432,1055.4 187.432,1049.25C187.432,1033.57 200.168,1020.83 215.855,1020.83Z" style="fill:rgb(65,197,82);"/>
                </g>
                <g transform="matrix(0.326815,0,0,0.110183,134.151,326.971)">
                    <path d="M301.114,262.757C300.51,261.766 298.913,261.171 296.529,259.983C294.134,258.798 282.361,253.047 280.171,252.26C277.979,251.47 276.372,251.071 274.786,253.444C273.19,255.82 268.602,261.171 267.201,262.757C265.809,264.345 264.417,264.538 262.021,263.351C259.624,262.165 251.908,259.649 242.771,251.569C235.661,245.265 230.857,237.498 229.454,235.122C228.064,232.749 229.315,231.464 230.5,230.279C231.581,229.21 232.898,227.506 234.094,226.125C235.293,224.732 235.691,223.738 236.489,222.153C237.288,220.567 236.89,219.186 236.285,217.998C235.691,216.813 230.901,205.125 228.904,200.366C226.92,195.62 224.923,195.797 223.52,195.797C222.128,195.797 219.544,196.211 219.544,196.211C219.544,196.211 214.747,196.805 212.556,199.181C210.366,201.554 204.184,207.305 204.184,218.981C204.184,230.666 212.752,241.964 213.949,243.539C215.147,245.127 230.5,269.889 254.834,279.396C279.168,288.902 279.168,285.73 283.558,285.33C287.938,284.943 297.714,279.59 299.711,274.043C301.708,268.496 301.708,263.74 301.114,262.757ZM251.812,158.986C206.537,158.986 169.72,195.521 169.72,240.442C169.72,258.257 175.524,274.767 185.355,288.2L175.104,318.445L206.645,308.424C219.603,316.926 235.13,321.891 251.812,321.891C297.067,321.891 333.896,285.353 333.896,240.442C333.896,195.521 297.067,158.986 251.812,158.986ZM349.444,240.442C349.444,293.94 305.733,337.32 251.812,337.32C234.688,337.32 218.6,332.948 204.614,325.266L150.555,342.445L168.176,290.469C159.284,275.866 154.171,258.742 154.171,240.442C154.171,186.933 197.883,143.555 251.812,143.555C305.733,143.555 349.444,186.933 349.444,240.442Z" style="fill:white;"/>
                </g>
            </g>
        </g>
    </g>
</svg>
